<svg width="23" height="23" viewBox="0 0 23 23" fill="none" xmlns="http://www.w3.org/2000/svg">
<path d="M4.52941 3.66667C4.52941 2.95942 4.77731 2.28115 5.21857 1.78105C5.65983 1.28095 6.25831 1 6.88235 1H15.1176C15.7417 1 16.3402 1.28095 16.7814 1.78105C17.2227 2.28115 17.4706 2.95942 17.4706 3.66667V13H21V15.6667C21 16.7275 20.6282 17.7449 19.9663 18.4951C19.3044 19.2452 18.4066 19.6667 17.4706 19.6667H12.7059C12.7451 19.4507 12.7647 19.2284 12.7647 19V18.3333H16.2941V3.66667C16.2941 3.31304 16.1702 2.97391 15.9495 2.72386C15.7289 2.47381 15.4297 2.33333 15.1176 2.33333H6.88235C6.57033 2.33333 6.27109 2.47381 6.05046 2.72386C5.82983 2.97391 5.70588 3.31304 5.70588 3.66667V11.6667H4.52941V3.66667ZM19.8235 14.3333H17.4706V18.3333C18.0946 18.3333 18.6931 18.0524 19.1344 17.5523C19.5756 17.0522 19.8235 16.3739 19.8235 15.6667V14.3333ZM8.05882 5.66667C8.05882 5.48986 8.1208 5.32029 8.23111 5.19526C8.34143 5.07024 8.49105 5 8.64706 5H13.3529C13.509 5 13.6586 5.07024 13.7689 5.19526C13.8792 5.32029 13.9412 5.48986 13.9412 5.66667C13.9412 5.84348 13.8792 6.01305 13.7689 6.13807C13.6586 6.2631 13.509 6.33333 13.3529 6.33333H8.64706C8.49105 6.33333 8.34143 6.2631 8.23111 6.13807C8.1208 6.01305 8.05882 5.84348 8.05882 5.66667ZM8.05882 9.66667C8.05882 9.48986 8.1208 9.32029 8.23111 9.19526C8.34143 9.07024 8.49105 9 8.64706 9H13.3529C13.509 9 13.6586 9.07024 13.7689 9.19526C13.8792 9.32029 13.9412 9.48986 13.9412 9.66667C13.9412 9.84348 13.8792 10.013 13.7689 10.1381C13.6586 10.2631 13.509 10.3333 13.3529 10.3333H8.64706C8.49105 10.3333 8.34143 10.2631 8.23111 10.1381C8.1208 10.013 8.05882 9.84348 8.05882 9.66667ZM11.5882 15C11.5882 14.4696 11.4023 13.9609 11.0714 13.5858C10.7404 13.2107 10.2916 13 9.82353 13H2.76471C2.29668 13 1.84782 13.2107 1.51687 13.5858C1.18592 13.9609 1 14.4696 1 15V19C1 19.5304 1.18592 20.0391 1.51687 20.4142C1.84782 20.7893 2.29668 21 2.76471 21H9.82353C10.2916 21 10.7404 20.7893 11.0714 20.4142C11.4023 20.0391 11.5882 19.5304 11.5882 19V15ZM10.4118 17.6667V19C10.2558 19 10.1061 19.0702 9.99582 19.1953C9.8855 19.3203 9.82353 19.4899 9.82353 19.6667H8.64706C8.64706 19.1362 8.83298 18.6275 9.16393 18.2525C9.49488 17.8774 9.94374 17.6667 10.4118 17.6667ZM9.82353 14.3333C9.82353 14.5101 9.8855 14.6797 9.99582 14.8047C10.1061 14.9298 10.2558 15 10.4118 15V16.3333C9.94374 16.3333 9.49488 16.1226 9.16393 15.7475C8.83298 15.3725 8.64706 14.8638 8.64706 14.3333H9.82353ZM2.17647 15C2.33248 15 2.4821 14.9298 2.59242 14.8047C2.70273 14.6797 2.76471 14.5101 2.76471 14.3333H3.94118C3.94118 14.8638 3.75525 15.3725 3.42431 15.7475C3.09336 16.1226 2.6445 16.3333 2.17647 16.3333V15ZM2.76471 19.6667C2.76471 19.4899 2.70273 19.3203 2.59242 19.1953C2.4821 19.0702 2.33248 19 2.17647 19V17.6667C2.6445 17.6667 3.09336 17.8774 3.42431 18.2525C3.75525 18.6275 3.94118 19.1362 3.94118 19.6667H2.76471ZM4.52941 17C4.52941 16.7374 4.57506 16.4773 4.66374 16.2346C4.75243 15.992 4.88241 15.7715 5.04628 15.5858C5.21015 15.4001 5.40469 15.2528 5.61879 15.1522C5.8329 15.0517 6.06237 15 6.29412 15C6.52586 15 6.75534 15.0517 6.96944 15.1522C7.18355 15.2528 7.37809 15.4001 7.54195 15.5858C7.70582 15.7715 7.83581 15.992 7.92449 16.2346C8.01318 16.4773 8.05882 16.7374 8.05882 17C8.05882 17.5304 7.8729 18.0391 7.54195 18.4142C7.21101 18.7893 6.76215 19 6.29412 19C5.82609 19 5.37723 18.7893 5.04628 18.4142C4.71534 18.0391 4.52941 17.5304 4.52941 17Z" fill="#494949"/>
</svg>
